<svg width="120" height="120" viewBox="0 0 120 120" fill="none" xmlns="http://www.w3.org/2000/svg">
<path fill-rule="evenodd" clip-rule="evenodd" d="M119.84 60.1803L113.216 66.0403L97.5407 64.2333C97.4376 65.2159 97.2946 66.1932 97.1153 67.1682L110.515 69.4288L106.297 72.8149L96.363 70.3944C95.5913 73.1641 94.4956 75.8612 93.077 78.4311L101.669 83.9958L102.216 89.4086L91.3403 81.2594C90.7948 82.0709 90.2147 82.8637 89.596 83.6366L101.918 93.5249L102.403 102.404L93.5745 101.87L83.7747 89.5071C83.0018 90.1346 82.2067 90.7258 81.3946 91.2813L89.2679 102.357L83.8966 101.77L78.585 93.0333C76.028 94.4729 73.338 95.5879 70.5782 96.3854L72.7128 106.4L69.2768 110.615L67.3468 97.1647C66.3811 97.3487 65.4097 97.4969 64.4352 97.6083L66.1591 113.315L60.2165 119.941L54.3589 113.318L56.1647 97.6422C55.1833 97.5385 54.2054 97.395 53.2321 97.2163L50.9686 110.615L47.5843 106.397L50.0036 96.4668C47.2333 95.694 44.5356 94.5995 41.9692 93.178L36.4028 101.77L30.9899 102.318L39.135 91.4448C38.3276 90.8952 37.5337 90.3151 36.7614 89.6993L26.8737 102.02L17.9909 102.504L18.5323 93.6766L30.8868 83.875C30.2604 83.0981 29.6692 82.3053 29.1132 81.495L18.0425 89.37L18.629 83.9958L27.3618 78.6842C25.9227 76.1284 24.8083 73.4407 24.0132 70.6786L14.0001 72.8149L9.78368 69.3766L23.2339 67.4477C23.0458 66.4815 22.8981 65.5077 22.7856 64.5292L7.08427 66.2553L0.459656 60.3133L7.08075 54.4586L22.754 56.2668C22.8583 55.2825 23.0007 54.3004 23.1823 53.3266L9.78309 51.0702L14.0001 47.6852L23.9323 50.0969C24.7075 47.329 25.8009 44.6301 27.22 42.0643L18.629 36.502L18.0835 31.0868L28.9544 39.2336C29.5022 38.4227 30.0852 37.6293 30.7034 36.8541L18.3776 26.9752L17.8919 18.0918L26.722 18.6309L36.5247 30.986C37.297 30.3584 38.0903 29.7684 38.9013 29.2124L31.0286 18.1416L36.4016 18.7288L41.7114 27.4604C44.269 26.0219 46.9591 24.9051 49.7212 24.11L47.5825 14.101L51.0208 9.88345L52.952 23.3313C53.9188 23.145 54.8903 22.9979 55.8659 22.8866L54.1456 7.18227L60.0823 0.56118L65.9393 7.17818L64.1347 22.8555C65.1155 22.9616 66.094 23.101 67.0667 23.2821L69.3272 9.88228L72.7128 14.101L70.297 24.0332C73.0655 24.8067 75.7626 25.903 78.3302 27.3227L83.8948 18.7288L89.3071 18.1803L81.162 29.0571C81.9724 29.6043 82.764 30.1862 83.5391 30.8014L93.4257 18.4786L102.31 17.9946L101.765 26.8194L89.4085 36.6256C90.0366 37.3997 90.6261 38.1924 91.1833 39.0028L102.256 31.1284L101.667 36.5026L92.9341 41.8141C94.3743 44.3711 95.4882 47.0606 96.2845 49.8239L106.297 47.6817L110.515 51.1217L97.0626 53.0512C97.2501 54.0192 97.3977 54.9924 97.5097 55.9692L113.216 54.2413L119.84 60.1803ZM89.0265 61.6581C89.0265 69.1809 85.7821 75.1358 80.8831 75.1358H60.2493V77.1215H74.1425V83.435C74.1419 86.4415 73.1938 90.0215 61.2852 90.0209H58.563C46.6544 90.0209 45.3641 86.442 45.3647 83.435V69.2811C45.3641 65.067 48.9067 61.2438 53.119 61.2438H68.9059C73.1182 61.2438 76.1259 58.2497 76.1264 54.0368L76.1259 45.3661L80.8831 45.3667C85.7821 45.3661 89.0265 52.5022 89.0265 60.025V61.6581ZM43.3796 66.4668V75.1358L39.6161 75.1364C34.7165 75.1364 30.4802 68.0002 30.4802 60.478V58.8438C30.4802 51.3221 34.7165 45.3666 39.6161 45.3661L59.2567 45.3661V43.3821L45.3647 43.3821V37.0686C45.3647 34.0616 47.3048 30.4815 59.2134 30.4815H61.935C73.8442 30.4815 74.1425 34.0616 74.1425 37.0686V51.2225C74.1425 55.436 71.5919 59.2586 67.3796 59.2586H51.5927C47.3804 59.2592 43.3796 62.2534 43.3796 66.4668ZM68.0669 86.4286C69.6067 86.4286 70.8565 85.1793 70.8565 83.6377C70.8565 82.0979 69.6061 80.8481 68.0669 80.8487C66.5259 80.8481 65.2766 82.0973 65.2766 83.6377C65.2766 85.1805 66.5259 86.4286 68.0669 86.4286ZM49.6421 36.8653C49.6421 35.3243 50.8919 34.0745 52.4317 34.0745C53.9727 34.0745 55.222 35.3237 55.222 36.8653C55.222 38.4057 53.9727 39.6543 52.4317 39.6549C50.8919 39.6543 49.6421 38.4057 49.6421 36.8653Z" fill="#FDD649"/>
</svg>
