<?xml version="1.0" encoding="UTF-8"?>
<svg width="270px" height="321px" viewBox="0 0 270 321" version="1.1" xmlns="http://www.w3.org/2000/svg" xmlns:xlink="http://www.w3.org/1999/xlink">
    <!-- Generator: Sketch 51.3 (57544) - http://www.bohemiancoding.com/sketch -->
    <title>icon-logo</title>
    <desc>Created with Sketch.</desc>
    <defs></defs>
    <g id="Page-1" stroke="none" stroke-width="1" fill="none" fill-rule="evenodd">
        <g id="icon-logo" fill="#FDD649" fill-rule="nonzero">
            <g id="Group" transform="translate(135.000000, 160.870000) scale(-1, 1) rotate(-180.000000) translate(-135.000000, -160.870000) translate(0.000000, 0.870000)">
                <path d="M196.60375,131.71625 C196.60375,115.66625 189.6825,102.96375 179.23125,102.96375 L135.2125,102.96375 L135.2125,98.72875 L164.85,98.72875 L164.85,85.25875 C164.85,78.84625 162.8275,71.20875 137.4225,71.20875 L131.615,71.20875 C106.21,71.20875 103.4575,78.84375 103.45875,85.25875 L103.45875,115.45375 C103.45875,124.44375 111.015,132.6 120.00125,132.6 L153.68125,132.6 C162.66875,132.6 169.08375,138.9875 169.085,147.975 L169.085,166.4725 L179.2325,166.4725 C189.6825,166.4725 196.605,151.2475 196.605,135.2 L196.605,131.71625 L196.60375,131.71625 Z M99.225,121.4575 L99.225,102.9625 L91.195,102.9625 C80.7425,102.9625 71.705,118.1875 71.705,134.23375 L71.705,137.72125 C71.705,153.76625 80.7425,166.47125 91.195,166.47125 L133.095,166.47125 L133.095,170.705 L103.4575,170.705 L103.4575,184.17375 C103.4575,190.58625 107.5975,198.22375 133.0025,198.22375 L138.80875,198.22375 C164.215,198.22375 164.85125,190.58625 164.85125,184.17375 L164.85125,153.9775 C164.85125,144.99 159.41125,136.83375 150.42625,136.83375 L116.74625,136.83375 C107.75875,136.83375 99.225,130.44625 99.225,121.45625 L99.225,121.4575 Z M248.2075,122.36625 L262.33875,134.86625 L248.20875,147.5375 L214.7025,143.8525 C214.465,145.93625 214.15,148.0125 213.75,150.0775 L242.4475,154.19375 L233.45,161.53125 L212.09,156.9625 C210.39,162.8575 208.015,168.595 204.9425,174.05 L223.57375,185.38125 L224.83,196.84625 L201.2075,180.04625 C200.02,181.77625 198.76125,183.4675 197.42,185.11875 L223.7825,206.03875 L224.945,224.86625 L205.99125,223.83375 L184.90125,197.54625 C183.2475,198.85875 181.55875,200.09875 179.83,201.26625 L197.2075,224.47 L185.66125,223.3 L173.79,204.965 C168.3125,207.99375 162.55875,210.3325 156.6525,211.9825 L161.80625,233.17 L154.585,242.17 L149.7625,213.585 C147.6875,213.9725 145.6,214.26875 143.5075,214.495 L147.3575,247.94 L134.86375,262.05625 L122.19875,247.93125 L125.86875,214.42875 C123.78625,214.19125 121.71375,213.87875 119.65125,213.47875 L115.53125,242.16875 L108.19625,233.17125 L112.75875,211.81875 C106.86625,210.1225 101.1275,207.74 95.67125,204.67125 L84.3375,223.3 L72.875,224.55 L89.67,200.93375 C87.94,199.74625 86.2475,198.48875 84.6,197.15 L63.6875,223.5075 L44.85,224.6575 L45.8875,205.7075 L72.18125,184.6325 C70.8625,182.9775 69.61875,181.285 68.45,179.555 L45.25875,196.935 L46.42125,185.3825 L64.75,173.51625 C61.7225,168.04125 59.39,162.285 57.7375,156.37875 L36.5475,161.525 L27.55125,154.30375 L56.13875,149.49125 C55.75125,147.4125 55.44625,145.31625 55.22375,143.21625 L21.78625,147.075 L7.66125,134.585 L21.795,121.91 L55.29125,125.59125 C55.53125,123.50375 55.84625,121.42625 56.2475,119.36625 L27.5525,115.25 L36.5475,107.915 L57.91,112.4725 C59.605,106.58 61.9825,100.8475 65.0525,95.39375 L46.4225,84.0625 L45.1725,72.5975 L68.78875,89.3975 C69.97625,87.66875 71.23875,85.9775 72.57375,84.32 L46.21625,63.41 L45.06125,44.5775 L64.01125,45.61 L85.10375,71.895 C86.75125,70.5825 88.445,69.345 90.16625,68.17 L72.79125,44.975 L84.33875,46.145 L96.21375,64.47375 C101.68875,61.44 107.44375,59.105 113.35375,57.45625 L108.19125,36.2725 L115.4125,27.2725 L120.2425,55.85625 C122.3175,55.475 124.405,55.16875 126.49875,54.9475 L122.645,21.50625 L135.14125,7.3775 L147.81875,21.51125 L144.14125,55.02125 C146.22,55.25875 148.29125,55.575 150.35375,55.9675 L154.47,27.27375 L161.8,36.26625 L157.2475,57.62875 C163.135,59.33125 168.8725,61.71 174.32875,64.78125 L185.66,46.14375 L197.11875,44.89125 L180.3225,68.51875 C182.055,69.70375 183.75125,70.965 185.4,72.30375 L206.30625,45.92875 L225.14125,44.79125 L224.10625,63.7325 L197.81875,84.8275 C199.13875,86.4775 200.37625,88.1675 201.54,89.89875 L224.74,72.51375 L223.575,84.06125 L205.245,95.9325 C208.27,101.415 210.6075,107.17 212.255,113.0775 L233.4475,107.915 L242.445,115.1375 L213.86,119.9625 C214.2425,122.04125 214.5475,124.125 214.7675,126.2225 L248.2075,122.3675 L248.2075,122.36625 Z M151.89,78.87125 C155.175,78.87125 157.84,81.53625 157.84,84.825 C157.84,88.1125 155.17375,90.7775 151.89,90.775 C148.6025,90.7775 145.9375,88.1125 145.9375,84.825 C145.9375,81.535 148.6025,78.8725 151.89,78.8725 L151.89,78.87125 Z M118.535,190.56 C115.25,190.56 112.585,187.895 112.585,184.6075 C112.585,181.32 115.25,178.6575 118.535,178.6575 C121.8225,178.6575 124.4875,181.32 124.4875,184.6075 C124.4875,187.895 121.8225,190.56125 118.535,190.56125 L118.535,190.56 Z M4.12875,3.8475 L8.59125,17.00375 L0.28125,28.13875 L14.17375,27.96375 L22.19375,39.30375 L26.31875,26.03875 L39.58375,21.91375 L28.24125,13.8925 L28.42,0 L17.285,8.30875 L4.12875,3.84625 L4.12875,3.8475 Z M134.23375,320 L140.38375,307.54125 L154.13,305.545 L144.18,295.845 L146.53,282.15375 L134.23375,288.62 L121.9375,282.155 L124.2875,295.8475 L114.3375,305.545 L128.0875,307.54125 L134.23375,320 Z M265.87125,3.8475 L252.715,8.3075 L241.58125,0 L241.75625,13.89125 L230.41625,21.9125 L243.68125,26.0375 L247.80625,39.3025 L255.8275,27.96 L269.71875,28.1375 L261.41125,17.00375 L265.87,3.8475 L265.87125,3.8475 Z" id="Shape"></path>
            </g>
        </g>
    </g>
</svg>