<svg width="255" height="47" viewBox="0 0 255 47" fill="none" xmlns="http://www.w3.org/2000/svg">
<path d="M0.880302 45.7515V1.17836H20.0907C22.267 1.17836 24.276 1.61781 26.1175 2.49672C27.959 3.37563 29.5494 4.56843 30.8887 6.07512C32.228 7.53997 33.2534 9.19315 33.9648 11.0347C34.7182 12.8762 35.0949 14.7386 35.0949 16.622C35.0949 19.2587 34.4671 21.749 33.2115 24.0927C31.9978 26.4365 30.2818 28.3617 28.0636 29.8684C25.8873 31.3332 23.3343 32.0656 20.4046 32.0656H13.1222V45.7515H0.880302ZM13.1222 21.3932H19.5885C20.0907 21.3932 20.572 21.2467 21.0324 20.9538C21.4927 20.6608 21.8694 20.1586 22.1624 19.4471C22.4972 18.7356 22.6646 17.7939 22.6646 16.622C22.6646 15.3664 22.4763 14.4038 22.0996 13.7342C21.7648 13.0227 21.3253 12.5414 20.7813 12.2902C20.279 11.9973 19.7768 11.8508 19.2746 11.8508H13.1222V21.3932ZM47.8086 1.17836L55.7815 19.3843L63.9428 1.17836H77.252L61.8711 30.9984V45.7515H49.692V30.8728L34.5622 1.17836H47.8086ZM115.297 11.8508H102.49V45.7515H90.2482V11.8508H77.3785V1.17836H115.297V11.8508ZM159.181 1.17836V45.7515H146.939V28.2989H131.998V45.7515H119.756V1.17836H131.998V17.6265H146.939V1.17836H159.181ZM186.929 46.1281C183.539 46.1281 180.463 45.5003 177.701 44.2448C174.939 42.9473 172.553 41.2314 170.544 39.0969C168.577 36.9205 167.049 34.4931 165.961 31.8145C164.915 29.0941 164.392 26.29 164.392 23.4021C164.392 20.4306 164.957 17.6055 166.087 14.927C167.217 12.2484 168.786 9.86279 170.795 7.77016C172.846 5.63567 175.252 3.96156 178.015 2.74783C180.819 1.53411 183.874 0.927243 187.18 0.927243C190.571 0.927243 193.647 1.57596 196.409 2.87339C199.171 4.12897 201.536 5.84493 203.503 8.02127C205.47 10.1976 206.977 12.646 208.023 15.3664C209.111 18.045 209.655 20.8073 209.655 23.6532C209.655 26.5829 209.09 29.3871 207.96 32.0656C206.872 34.7442 205.303 37.1507 203.252 39.2852C201.243 41.3779 198.857 43.052 196.095 44.3075C193.333 45.5213 190.278 46.1281 186.929 46.1281ZM176.822 23.5277C176.822 25.0344 177.031 26.4992 177.45 27.9222C177.868 29.3034 178.496 30.5589 179.333 31.689C180.17 32.7771 181.216 33.656 182.472 34.3257C183.769 34.9535 185.297 35.2674 187.055 35.2674C188.813 35.2674 190.34 34.9325 191.638 34.2629C192.935 33.5933 193.982 32.6934 194.777 31.5634C195.614 30.3915 196.221 29.115 196.597 27.7339C197.016 26.3109 197.225 24.867 197.225 23.4021C197.225 21.8954 197.016 20.4515 196.597 19.0704C196.179 17.6892 195.551 16.4546 194.714 15.3664C193.877 14.2364 192.81 13.3575 191.512 12.7297C190.215 12.1019 188.708 11.788 186.992 11.788C185.234 11.788 183.707 12.1228 182.409 12.7925C181.154 13.4621 180.107 14.362 179.27 15.492C178.433 16.5801 177.805 17.8357 177.387 19.2587C177.01 20.6399 176.822 22.0628 176.822 23.5277ZM227.086 23.8416V45.7515H214.844V1.17836H224.386L242.278 23.8416V1.17836H254.52V45.7515H244.79L227.086 23.8416Z" fill="white"/>
</svg>
