<svg width="242" height="31" viewBox="0 0 242 31" fill="none" xmlns="http://www.w3.org/2000/svg">
<path d="M0.943081 30.1545V0.439136H13.1641C14.4196 0.439136 15.5636 0.704203 16.596 1.23434C17.6563 1.76447 18.577 2.47597 19.3583 3.36882C20.1395 4.23378 20.7394 5.21034 21.1579 6.29851C21.6044 7.38668 21.8276 8.50275 21.8276 9.64673C21.8276 11.2371 21.4648 12.7438 20.7394 14.1668C20.0419 15.5619 19.0653 16.7059 17.8097 17.5987C16.582 18.4916 15.1172 18.938 13.4152 18.938H3.07757V30.1545H0.943081ZM3.07757 16.9709H13.3315C14.6429 16.9709 15.7729 16.6222 16.7215 15.9246C17.6702 15.2271 18.3956 14.3203 18.8979 13.2042C19.4001 12.0881 19.6512 10.9023 19.6512 9.64673C19.6512 8.33534 19.3443 7.13557 18.7305 6.0474C18.1445 4.93132 17.3493 4.03847 16.3449 3.36882C15.3683 2.69918 14.2801 2.36436 13.0804 2.36436H3.07757V16.9709ZM49.9565 0.439136V30.1545H47.822V15.9246H29.072V30.1545H26.9375V0.439136H29.072V13.9994H47.822V0.439136H49.9565ZM57.714 30.1545V0.439136H59.8484V30.1545H57.714ZM67.6458 30.1545V0.439136H69.7803V28.2293H87.5258V30.1545H67.6458ZM91.9645 30.1545V0.439136H94.099V30.1545H91.9645ZM101.896 30.1545V0.439136H114.117C115.373 0.439136 116.517 0.704203 117.549 1.23434C118.609 1.76447 119.53 2.47597 120.312 3.36882C121.093 4.23378 121.693 5.21034 122.111 6.29851C122.558 7.38668 122.781 8.50275 122.781 9.64673C122.781 11.2371 122.418 12.7438 121.693 14.1668C120.995 15.5619 120.019 16.7059 118.763 17.5987C117.535 18.4916 116.07 18.938 114.368 18.938H104.031V30.1545H101.896ZM104.031 16.9709H114.285C115.596 16.9709 116.726 16.6222 117.675 15.9246C118.623 15.2271 119.349 14.3203 119.851 13.2042C120.353 12.0881 120.604 10.9023 120.604 9.64673C120.604 8.33534 120.298 7.13557 119.684 6.0474C119.098 4.93132 118.303 4.03847 117.298 3.36882C116.322 2.69918 115.233 2.36436 114.034 2.36436H104.031V16.9709ZM127.891 30.1545V0.439136H140.112C141.367 0.439136 142.511 0.704203 143.544 1.23434C144.604 1.76447 145.525 2.47597 146.306 3.36882C147.087 4.23378 147.687 5.21034 148.106 6.29851C148.552 7.38668 148.775 8.50275 148.775 9.64673C148.775 11.2371 148.413 12.7438 147.687 14.1668C146.99 15.5619 146.013 16.7059 144.757 17.5987C143.53 18.4916 142.065 18.938 140.363 18.938H130.025V30.1545H127.891ZM130.025 16.9709H140.279C141.591 16.9709 142.721 16.6222 143.669 15.9246C144.618 15.2271 145.343 14.3203 145.846 13.2042C146.348 12.0881 146.599 10.9023 146.599 9.64673C146.599 8.33534 146.292 7.13557 145.678 6.0474C145.092 4.93132 144.297 4.03847 143.293 3.36882C142.316 2.69918 141.228 2.36436 140.028 2.36436H130.025V16.9709ZM153.885 30.1545V0.439136H156.02V30.1545H153.885ZM165.952 4.41514V30.1545H163.817V0.439136H165.575L186.292 26.5971V0.439136H188.426V30.1545H186.334L165.952 4.41514ZM215.984 28.2293V30.1545H196.187V0.439136H215.607V2.36436H198.322V14.0413H213.431V15.8828H198.322V28.2293H215.984ZM238.772 5.37775C238.298 4.84762 237.768 4.38724 237.182 3.99662C236.596 3.57809 235.968 3.24327 235.298 2.99215C234.629 2.71313 233.903 2.50387 233.122 2.36436C232.341 2.22485 231.504 2.1551 230.611 2.1551C227.709 2.1551 225.589 2.71313 224.249 3.8292C222.938 4.91737 222.282 6.39617 222.282 8.26559C222.282 9.52117 222.575 10.5256 223.161 11.279C223.775 12.0044 224.724 12.5904 226.007 13.0368C227.291 13.4832 228.951 13.9157 230.988 14.3342C233.136 14.7807 234.992 15.3108 236.554 15.9246C238.117 16.5106 239.316 17.3197 240.153 18.3521C241.018 19.3845 241.451 20.7795 241.451 22.5374C241.451 23.8487 241.2 25.0067 240.697 26.0111C240.195 26.9877 239.47 27.7968 238.521 28.4386C237.572 29.0803 236.442 29.5686 235.131 29.9034C233.848 30.2382 232.411 30.4057 230.82 30.4057C229.286 30.4057 227.821 30.2382 226.426 29.9034C225.031 29.5686 223.719 29.0803 222.492 28.4386C221.264 27.7968 220.12 26.9737 219.06 25.9693L220.19 24.2533C220.803 24.923 221.487 25.5228 222.24 26.053C223.022 26.5552 223.859 26.9877 224.752 27.3504C225.672 27.7131 226.649 28.0061 227.681 28.2293C228.714 28.4246 229.788 28.5223 230.904 28.5223C233.499 28.5223 235.522 28.048 236.973 27.0993C238.451 26.1227 239.191 24.6858 239.191 22.7885C239.191 21.4771 238.856 20.4168 238.186 19.6077C237.517 18.7985 236.484 18.1428 235.089 17.6406C233.694 17.1105 231.95 16.6222 229.858 16.1757C227.765 15.7293 225.979 15.2271 224.5 14.669C223.05 14.111 221.947 13.3577 221.194 12.409C220.469 11.4603 220.106 10.1769 220.106 8.55856C220.106 6.77284 220.538 5.26615 221.403 4.03847C222.296 2.78289 223.538 1.83423 225.128 1.19248C226.719 0.550744 228.546 0.229873 230.611 0.229873C231.894 0.229873 233.08 0.355431 234.168 0.606548C235.285 0.857664 236.303 1.24829 237.224 1.77842C238.172 2.28065 239.051 2.9224 239.86 3.70365L238.772 5.37775Z" fill="white"/>
</svg>
